<svg xmlns="http://www.w3.org/2000/svg" viewBox="0 0 512 512" role="img" aria-labelledby="title">
  <title id="title">Expense Tracker app icon</title>
  <defs>
    <linearGradient id="bg" x1="0%" y1="0%" x2="100%" y2="100%">
      <stop offset="0%" stop-color="#0f172a" />
      <stop offset="100%" stop-color="#1d4ed8" />
    </linearGradient>
    <linearGradient id="card" x1="0%" y1="0%" x2="100%" y2="100%">
      <stop offset="0%" stop-color="#22c55e" />
      <stop offset="100%" stop-color="#14b8a6" />
    </linearGradient>
  </defs>
  <rect width="512" height="512" rx="128" fill="url(#bg)" />
  <rect x="92" y="132" width="328" height="244" rx="40" fill="url(#card)" />
  <path d="M170 116c0-30 24-54 54-54h64c30 0 54 24 54 54v24h-38v-18c0-12-10-22-22-22h-52c-12 0-22 10-22 22v18h-38v-24Z" fill="#dbeafe" opacity="0.9" />
  <rect x="132" y="196" width="104" height="30" rx="15" fill="#ecfeff" opacity="0.92" />
  <rect x="132" y="252" width="156" height="30" rx="15" fill="#ecfeff" opacity="0.82" />
  <circle cx="330" cy="224" r="46" fill="#f8fafc" />
  <path d="M330 202v44M308 224h44" stroke="#0f172a" stroke-width="18" stroke-linecap="round" />
  <path d="M316 334c30-16 56-42 78-76" stroke="#f8fafc" stroke-width="18" stroke-linecap="round" opacity="0.9" />
</svg>
